# xmcd
#
# Track frame offsets: 
#        150
#        18844
#        26030
#        44327
#        63327
#        78350
#        95846
#        110946
#        130657
#        151274
#        171452
#        197551
#        219923
#        233288
#        247343
#        263355
#        284856
#
# Disc length: 4105 seconds
#
# Revision: 0
# Processed by: cddbd v1.5.2PL0 Copyright (c) Steve Scherf et al.
# Submitted via: ExactAudioCopy v1.3
#
DISCID=ed100711
DTITLE=Gaye Adegbalola - The Griot
DYEAR=2019
DGENRE=Blues
TTITLE0=Nothing's Changed
TTITLE1=The Griot
TTITLE2=Liearrhea
TTITLE3=FGM (Female Genital Mutilation)
TTITLE4=Dirty Sheets
TTITLE5=(You're) Flint Water
TTITLE6=Kaepernicked
TTITLE7=Ain't Technology Grand
TTITLE8=Gon' Be Alright
TTITLE9=Don't Criticize Me
TTITLE10=Nothing Left
TTITLE11=(There Is Always) One More Time
TTITLE12=Need A Little Sugar In My Bowl
TTITLE13=Tea Cake Kind Of Love
TTITLE14=3 Hour Shoes (Stylin' For The Lord)
TTITLE15=Sorry, But… No Shame
TTITLE16=Jelly Bean Blues
EXTD=
EXTT0=
EXTT1=
EXTT2=
EXTT3=
EXTT4=
EXTT5=
EXTT6=
EXTT7=
EXTT8=
EXTT9=
EXTT10=
EXTT11=
EXTT12=
EXTT13=
EXTT14=
EXTT15=
EXTT16=
PLAYORDER=
